<mxfile host="app.diagrams.net" agent="Mozilla/5.0 (Windows NT 10.0; Win64; x64) AppleWebKit/537.36 (KHTML, like Gecko) Chrome/133.0.0.0 Safari/537.36" version="26.0.11">
  <diagram id="C5RBs43oDa-KdzZeNtuy" name="Page-1">
    <mxGraphModel grid="0" page="1" gridSize="10" guides="1" tooltips="1" connect="1" arrows="1" fold="1" pageScale="1" pageWidth="827" pageHeight="1169" math="0" shadow="0">
      <root>
        <mxCell id="WIyWlLk6GJQsqaUBKTNV-0" />
        <mxCell id="WIyWlLk6GJQsqaUBKTNV-1" parent="WIyWlLk6GJQsqaUBKTNV-0" />
        <mxCell id="8dr9rXT9LXINj3wEu-Yk-1" value="User Interface" style="swimlane;fontStyle=1;align=center;verticalAlign=top;childLayout=stackLayout;horizontal=1;startSize=26;horizontalStack=0;resizeParent=1;resizeParentMax=0;resizeLast=0;collapsible=1;marginBottom=0;whiteSpace=wrap;html=1;fillColor=#d5e8d4;strokeColor=#82b366;" vertex="1" parent="WIyWlLk6GJQsqaUBKTNV-1">
          <mxGeometry x="325" y="512" width="160" height="140" as="geometry" />
        </mxCell>
        <mxCell id="8dr9rXT9LXINj3wEu-Yk-2" value="+ file: document" style="text;strokeColor=none;fillColor=none;align=left;verticalAlign=top;spacingLeft=4;spacingRight=4;overflow=hidden;rotatable=0;points=[[0,0.5],[1,0.5]];portConstraint=eastwest;whiteSpace=wrap;html=1;" vertex="1" parent="8dr9rXT9LXINj3wEu-Yk-1">
          <mxGeometry y="26" width="160" height="26" as="geometry" />
        </mxCell>
        <mxCell id="8dr9rXT9LXINj3wEu-Yk-3" value="" style="line;strokeWidth=1;fillColor=none;align=left;verticalAlign=middle;spacingTop=-1;spacingLeft=3;spacingRight=3;rotatable=0;labelPosition=right;points=[];portConstraint=eastwest;strokeColor=inherit;" vertex="1" parent="8dr9rXT9LXINj3wEu-Yk-1">
          <mxGeometry y="52" width="160" height="8" as="geometry" />
        </mxCell>
        <mxCell id="8dr9rXT9LXINj3wEu-Yk-4" value="+ upload()&lt;div&gt;+ submit()&lt;/div&gt;&lt;div&gt;+ dataAnalysis()&lt;/div&gt;&lt;div&gt;+ dataVisualization()&lt;/div&gt;&lt;div&gt;+ download()&lt;/div&gt;" style="text;strokeColor=none;fillColor=none;align=left;verticalAlign=top;spacingLeft=4;spacingRight=4;overflow=hidden;rotatable=0;points=[[0,0.5],[1,0.5]];portConstraint=eastwest;whiteSpace=wrap;html=1;" vertex="1" parent="8dr9rXT9LXINj3wEu-Yk-1">
          <mxGeometry y="60" width="160" height="80" as="geometry" />
        </mxCell>
        <mxCell id="8dr9rXT9LXINj3wEu-Yk-9" value="Data Analysis" style="swimlane;fontStyle=1;align=center;verticalAlign=top;childLayout=stackLayout;horizontal=1;startSize=26;horizontalStack=0;resizeParent=1;resizeParentMax=0;resizeLast=0;collapsible=1;marginBottom=0;whiteSpace=wrap;html=1;fillColor=#dae8fc;strokeColor=#6c8ebf;" vertex="1" parent="WIyWlLk6GJQsqaUBKTNV-1">
          <mxGeometry x="117" y="164" width="160" height="170" as="geometry" />
        </mxCell>
        <mxCell id="8dr9rXT9LXINj3wEu-Yk-10" value="+ file: document" style="text;strokeColor=none;fillColor=none;align=left;verticalAlign=top;spacingLeft=4;spacingRight=4;overflow=hidden;rotatable=0;points=[[0,0.5],[1,0.5]];portConstraint=eastwest;whiteSpace=wrap;html=1;" vertex="1" parent="8dr9rXT9LXINj3wEu-Yk-9">
          <mxGeometry y="26" width="160" height="26" as="geometry" />
        </mxCell>
        <mxCell id="8dr9rXT9LXINj3wEu-Yk-11" value="" style="line;strokeWidth=1;fillColor=none;align=left;verticalAlign=middle;spacingTop=-1;spacingLeft=3;spacingRight=3;rotatable=0;labelPosition=right;points=[];portConstraint=eastwest;strokeColor=inherit;" vertex="1" parent="8dr9rXT9LXINj3wEu-Yk-9">
          <mxGeometry y="52" width="160" height="8" as="geometry" />
        </mxCell>
        <mxCell id="8dr9rXT9LXINj3wEu-Yk-12" value="+ parse()&lt;div&gt;+ head()&lt;/div&gt;&lt;div&gt;+ tail()&lt;/div&gt;&lt;div&gt;+ sort()&lt;/div&gt;&lt;div&gt;+ submit()&lt;/div&gt;&lt;div&gt;+ display()&lt;/div&gt;&lt;div&gt;+ download()&lt;/div&gt;" style="text;strokeColor=none;fillColor=none;align=left;verticalAlign=top;spacingLeft=4;spacingRight=4;overflow=hidden;rotatable=0;points=[[0,0.5],[1,0.5]];portConstraint=eastwest;whiteSpace=wrap;html=1;" vertex="1" parent="8dr9rXT9LXINj3wEu-Yk-9">
          <mxGeometry y="60" width="160" height="110" as="geometry" />
        </mxCell>
        <mxCell id="8dr9rXT9LXINj3wEu-Yk-13" value="Data Visualization" style="swimlane;fontStyle=1;align=center;verticalAlign=top;childLayout=stackLayout;horizontal=1;startSize=26;horizontalStack=0;resizeParent=1;resizeParentMax=0;resizeLast=0;collapsible=1;marginBottom=0;whiteSpace=wrap;html=1;fillColor=#dae8fc;strokeColor=#6c8ebf;" vertex="1" parent="WIyWlLk6GJQsqaUBKTNV-1">
          <mxGeometry x="117" y="816" width="160" height="190" as="geometry" />
        </mxCell>
        <mxCell id="8dr9rXT9LXINj3wEu-Yk-14" value="+ file: document" style="text;strokeColor=none;fillColor=none;align=left;verticalAlign=top;spacingLeft=4;spacingRight=4;overflow=hidden;rotatable=0;points=[[0,0.5],[1,0.5]];portConstraint=eastwest;whiteSpace=wrap;html=1;" vertex="1" parent="8dr9rXT9LXINj3wEu-Yk-13">
          <mxGeometry y="26" width="160" height="26" as="geometry" />
        </mxCell>
        <mxCell id="8dr9rXT9LXINj3wEu-Yk-15" value="" style="line;strokeWidth=1;fillColor=none;align=left;verticalAlign=middle;spacingTop=-1;spacingLeft=3;spacingRight=3;rotatable=0;labelPosition=right;points=[];portConstraint=eastwest;strokeColor=inherit;" vertex="1" parent="8dr9rXT9LXINj3wEu-Yk-13">
          <mxGeometry y="52" width="160" height="8" as="geometry" />
        </mxCell>
        <mxCell id="8dr9rXT9LXINj3wEu-Yk-16" value="+ parse()&lt;div&gt;+ barChart()&lt;/div&gt;&lt;div&gt;+ lineChart()&lt;/div&gt;&lt;div&gt;+ pieChart()&lt;/div&gt;&lt;div&gt;+ ......&lt;/div&gt;&lt;div&gt;+ submit()&lt;/div&gt;&lt;div&gt;+ display()&lt;/div&gt;&lt;div&gt;+ download()&lt;/div&gt;" style="text;strokeColor=none;fillColor=none;align=left;verticalAlign=top;spacingLeft=4;spacingRight=4;overflow=hidden;rotatable=0;points=[[0,0.5],[1,0.5]];portConstraint=eastwest;whiteSpace=wrap;html=1;" vertex="1" parent="8dr9rXT9LXINj3wEu-Yk-13">
          <mxGeometry y="60" width="160" height="130" as="geometry" />
        </mxCell>
        <mxCell id="8dr9rXT9LXINj3wEu-Yk-17" value="User" style="swimlane;fontStyle=1;align=center;verticalAlign=top;childLayout=stackLayout;horizontal=1;startSize=26;horizontalStack=0;resizeParent=1;resizeParentMax=0;resizeLast=0;collapsible=1;marginBottom=0;whiteSpace=wrap;html=1;fillColor=#e1d5e7;strokeColor=#9673a6;" vertex="1" parent="WIyWlLk6GJQsqaUBKTNV-1">
          <mxGeometry x="550" y="186" width="160" height="148" as="geometry" />
        </mxCell>
        <mxCell id="8dr9rXT9LXINj3wEu-Yk-18" value="+ file: document&lt;div&gt;+ input: data_fields&lt;/div&gt;" style="text;strokeColor=none;fillColor=none;align=left;verticalAlign=top;spacingLeft=4;spacingRight=4;overflow=hidden;rotatable=0;points=[[0,0.5],[1,0.5]];portConstraint=eastwest;whiteSpace=wrap;html=1;" vertex="1" parent="8dr9rXT9LXINj3wEu-Yk-17">
          <mxGeometry y="26" width="160" height="34" as="geometry" />
        </mxCell>
        <mxCell id="8dr9rXT9LXINj3wEu-Yk-19" value="" style="line;strokeWidth=1;fillColor=none;align=left;verticalAlign=middle;spacingTop=-1;spacingLeft=3;spacingRight=3;rotatable=0;labelPosition=right;points=[];portConstraint=eastwest;strokeColor=inherit;" vertex="1" parent="8dr9rXT9LXINj3wEu-Yk-17">
          <mxGeometry y="60" width="160" height="8" as="geometry" />
        </mxCell>
        <mxCell id="8dr9rXT9LXINj3wEu-Yk-20" value="+ upload()&lt;div&gt;+ submit()&lt;/div&gt;&lt;div&gt;+ operationSelect()&lt;/div&gt;&lt;div&gt;+ selectingFields()&lt;/div&gt;&lt;div&gt;+ download()&lt;/div&gt;" style="text;strokeColor=none;fillColor=none;align=left;verticalAlign=top;spacingLeft=4;spacingRight=4;overflow=hidden;rotatable=0;points=[[0,0.5],[1,0.5]];portConstraint=eastwest;whiteSpace=wrap;html=1;" vertex="1" parent="8dr9rXT9LXINj3wEu-Yk-17">
          <mxGeometry y="68" width="160" height="80" as="geometry" />
        </mxCell>
        <mxCell id="8dr9rXT9LXINj3wEu-Yk-25" value="" style="endArrow=block;endSize=10;endFill=0;shadow=0;strokeWidth=1;rounded=0;curved=0;edgeStyle=elbowEdgeStyle;elbow=vertical;entryX=1.044;entryY=0.2;entryDx=0;entryDy=0;entryPerimeter=0;exitX=0.5;exitY=1;exitDx=0;exitDy=0;exitPerimeter=0;" edge="1" parent="WIyWlLk6GJQsqaUBKTNV-1" source="8dr9rXT9LXINj3wEu-Yk-20">
          <mxGeometry width="160" relative="1" as="geometry">
            <mxPoint x="730.96" y="477" as="sourcePoint" />
            <mxPoint x="483" y="593" as="targetPoint" />
            <Array as="points">
              <mxPoint x="608.96" y="593" />
            </Array>
          </mxGeometry>
        </mxCell>
        <mxCell id="8dr9rXT9LXINj3wEu-Yk-32" value="User Option" style="endArrow=open;endSize=12;dashed=1;html=1;rounded=0;exitX=1;exitY=0;exitDx=0;exitDy=0;entryX=0;entryY=1;entryDx=0;entryDy=0;entryPerimeter=0;" edge="1" parent="WIyWlLk6GJQsqaUBKTNV-1" source="8dr9rXT9LXINj3wEu-Yk-13" target="8dr9rXT9LXINj3wEu-Yk-4">
          <mxGeometry width="160" relative="1" as="geometry">
            <mxPoint x="321" y="487" as="sourcePoint" />
            <mxPoint x="481" y="437" as="targetPoint" />
          </mxGeometry>
        </mxCell>
        <mxCell id="8dr9rXT9LXINj3wEu-Yk-33" value="User Option" style="endArrow=open;endSize=12;dashed=1;html=1;rounded=0;exitX=1;exitY=1;exitDx=0;exitDy=0;entryX=0;entryY=0;entryDx=0;entryDy=0;exitPerimeter=0;" edge="1" parent="WIyWlLk6GJQsqaUBKTNV-1" source="8dr9rXT9LXINj3wEu-Yk-12" target="8dr9rXT9LXINj3wEu-Yk-1">
          <mxGeometry width="160" relative="1" as="geometry">
            <mxPoint x="541" y="337" as="sourcePoint" />
            <mxPoint x="595" y="503" as="targetPoint" />
          </mxGeometry>
        </mxCell>
        <mxCell id="8dr9rXT9LXINj3wEu-Yk-21" value="System" style="swimlane;fontStyle=1;align=center;verticalAlign=top;childLayout=stackLayout;horizontal=1;startSize=26;horizontalStack=0;resizeParent=1;resizeParentMax=0;resizeLast=0;collapsible=1;marginBottom=0;whiteSpace=wrap;html=1;fillColor=#f8cecc;strokeColor=#b85450;" vertex="1" parent="WIyWlLk6GJQsqaUBKTNV-1">
          <mxGeometry x="550" y="814" width="160" height="140" as="geometry" />
        </mxCell>
        <mxCell id="8dr9rXT9LXINj3wEu-Yk-22" value="+ file: document" style="text;strokeColor=none;fillColor=none;align=left;verticalAlign=top;spacingLeft=4;spacingRight=4;overflow=hidden;rotatable=0;points=[[0,0.5],[1,0.5]];portConstraint=eastwest;whiteSpace=wrap;html=1;" vertex="1" parent="8dr9rXT9LXINj3wEu-Yk-21">
          <mxGeometry y="26" width="160" height="26" as="geometry" />
        </mxCell>
        <mxCell id="8dr9rXT9LXINj3wEu-Yk-23" value="" style="line;strokeWidth=1;fillColor=none;align=left;verticalAlign=middle;spacingTop=-1;spacingLeft=3;spacingRight=3;rotatable=0;labelPosition=right;points=[];portConstraint=eastwest;strokeColor=inherit;" vertex="1" parent="8dr9rXT9LXINj3wEu-Yk-21">
          <mxGeometry y="52" width="160" height="8" as="geometry" />
        </mxCell>
        <mxCell id="8dr9rXT9LXINj3wEu-Yk-24" value="+ parsingFile()&lt;div&gt;+ operationProcess()&lt;/div&gt;&lt;div&gt;+ generatingResult()&lt;/div&gt;&lt;div&gt;+ rendering()&lt;/div&gt;&lt;div&gt;+ conversion()&lt;/div&gt;" style="text;strokeColor=none;fillColor=none;align=left;verticalAlign=top;spacingLeft=4;spacingRight=4;overflow=hidden;rotatable=0;points=[[0,0.5],[1,0.5]];portConstraint=eastwest;whiteSpace=wrap;html=1;" vertex="1" parent="8dr9rXT9LXINj3wEu-Yk-21">
          <mxGeometry y="60" width="160" height="80" as="geometry" />
        </mxCell>
        <mxCell id="8dr9rXT9LXINj3wEu-Yk-36" value="" style="endArrow=block;endSize=10;endFill=0;shadow=0;strokeWidth=1;rounded=0;curved=0;edgeStyle=elbowEdgeStyle;elbow=vertical;exitX=0.5;exitY=0;exitDx=0;exitDy=0;" edge="1" parent="WIyWlLk6GJQsqaUBKTNV-1" source="8dr9rXT9LXINj3wEu-Yk-21">
          <mxGeometry width="160" relative="1" as="geometry">
            <mxPoint x="631" y="810" as="sourcePoint" />
            <mxPoint x="483" y="594" as="targetPoint" />
            <Array as="points">
              <mxPoint x="623" y="594" />
            </Array>
          </mxGeometry>
        </mxCell>
      </root>
    </mxGraphModel>
  </diagram>
</mxfile>
